<?xml version="1.0" standalone="no"?>
<!DOCTYPE svg PUBLIC "-//W3C//DTD SVG 20010904//EN"
 "http://www.w3.org/TR/2001/REC-SVG-20010904/DTD/svg10.dtd">
<svg version="1.0" xmlns="http://www.w3.org/2000/svg"
 width="416.000000pt" height="416.000000pt" viewBox="0 0 416.000000 416.000000"
 preserveAspectRatio="xMidYMid meet">

<g transform="translate(0.000000,416.000000) scale(0.100000,-0.100000)"
fill="#000000" stroke="none">
<path d="M820 3436 c-20 -6 -59 -34 -92 -67 -38 -37 -60 -53 -67 -46 -7 7 -8
3 -4 -11 3 -11 -3 -44 -12 -72 -13 -39 -21 -50 -32 -45 -13 4 -14 3 -3 -10 9
-11 11 -33 6 -74 -6 -50 -7 -308 -3 -591 1 -36 0 -104 -1 -152 l-2 -88 -40 0
c-33 0 -38 3 -33 18 5 14 3 14 -9 -2 -14 -18 -18 -19 -54 -5 l-39 15 -7 159
c-4 88 -9 174 -13 191 -8 43 -37 66 -84 68 -54 1 -90 -28 -116 -93 -12 -28
-24 -49 -28 -46 -4 3 -3 -1 3 -7 5 -7 10 -34 10 -60 0 -37 -4 -48 -16 -48 -14
0 -14 -1 0 -16 11 -11 16 -35 16 -79 0 -35 3 -70 6 -78 3 -10 -2 -17 -13 -20
-14 -4 -15 -5 -2 -6 10 -1 24 -23 38 -60 23 -63 80 -125 126 -137 22 -5 23 -9
13 -28 -11 -20 -10 -21 9 -3 19 16 29 17 131 5 l111 -12 5 -60 c3 -34 8 -141
11 -238 6 -168 5 -178 -12 -178 -17 -1 -17 -1 0 -11 14 -8 17 -25 17 -106 l0
-95 -97 3 -98 4 -3 -115 c-4 -150 -1 -160 43 -160 34 0 35 -1 36 -42 0 -24 6
-126 13 -228 13 -208 20 -227 87 -254 69 -28 218 -41 316 -29 103 13 137 26
152 59 6 13 13 126 17 253 l7 230 31 3 31 3 5 125 c3 69 2 130 -3 135 -4 6
-48 12 -97 13 l-90 4 1 151 c0 124 3 155 16 170 15 16 15 17 -2 17 -17 0 -18
9 -12 137 4 75 7 187 7 249 l0 113 28 4 27 4 -27 2 c-27 1 -28 3 -28 56 0 54
1 55 23 45 l22 -11 -23 20 c-20 17 -22 28 -22 108 0 48 -1 99 -2 112 l-3 25
141 -3 c158 -3 209 9 218 51 7 31 16 118 21 202 3 41 10 73 17 78 10 6 10 8 1
8 -17 0 -17 92 -1 108 9 9 9 12 0 12 -7 0 -12 10 -12 23 0 12 -7 47 -15 77
-14 52 -14 55 8 80 20 22 20 23 1 7 -22 -18 -44 -23 -44 -8 0 5 -20 19 -45 31
-38 18 -50 20 -78 11 -19 -7 -45 -23 -58 -37 -22 -24 -24 -34 -27 -159 -3
-118 -5 -133 -19 -128 -11 4 -9 -1 5 -15 23 -23 31 -82 10 -82 -6 0 -4 -8 6
-19 16 -17 15 -19 -12 -24 -28 -6 -59 -2 -92 10 -8 4 -19 5 -24 4 -5 -1 -5 46
0 111 14 176 10 356 -8 404 -13 32 -14 45 -5 54 9 10 9 11 -1 5 -9 -5 -24 5
-44 29 -42 51 -74 65 -118 52z m5 -43 c-10 -26 -18 -83 -12 -83 3 0 13 23 22
50 9 28 21 50 26 50 27 0 53 -206 29 -235 -8 -10 -9 -15 -1 -15 16 0 15 -252
-1 -268 -9 -9 -8 -12 5 -12 23 0 21 -16 -3 -47 -11 -14 -20 -35 -20 -47 1 -22
5 -18 37 31 10 17 15 15 52 -26 23 -24 41 -47 41 -52 0 -5 5 -9 10 -9 6 0 10
3 10 8 0 4 21 6 47 4 38 -3 53 1 70 17 12 12 29 18 37 15 9 -3 16 -2 16 4 0 5
-8 12 -19 15 -13 3 -20 16 -23 41 -4 34 -2 37 16 32 20 -4 19 -4 -1 11 -21 14
-23 24 -23 99 l0 85 30 -16 c17 -9 30 -12 30 -7 0 4 -14 13 -31 19 -30 12 -31
14 -26 58 6 60 39 97 82 93 42 -4 55 -38 59 -155 4 -91 3 -99 -20 -126 -14
-16 -22 -32 -19 -36 4 -3 15 4 24 15 17 21 17 20 14 -35 -6 -87 -9 -114 -18
-135 -6 -14 -5 -17 3 -12 9 5 12 -6 12 -38 l0 -46 -42 -1 c-24 0 -50 -2 -58
-3 -89 -17 -133 -15 -181 5 -39 17 -57 20 -77 13 -26 -9 -27 -13 -27 -77 0
-50 -3 -66 -12 -62 -17 6 -16 -5 2 -25 12 -13 13 -23 6 -41 -7 -16 -10 -19
-10 -7 -1 9 -6 20 -12 24 -11 6 -4 -49 9 -71 3 -5 6 -66 6 -136 1 -110 -1
-122 -12 -96 -7 16 -14 28 -17 25 -9 -8 8 -78 19 -78 16 0 5 -347 -12 -377 -7
-13 -8 -23 -3 -23 6 0 14 6 18 14 4 8 8 -44 8 -115 0 -106 -3 -129 -15 -129
-11 0 -11 -3 -2 -12 7 -7 12 -34 12 -60 l0 -48 -77 0 c-60 0 -74 3 -65 12 14
14 16 28 4 28 -5 0 -14 -11 -20 -25 -8 -17 -20 -25 -37 -25 -23 0 -25 4 -25
40 0 37 3 41 30 47 17 3 33 10 37 16 6 10 -13 7 -49 -8 -16 -6 -18 -1 -18 35
0 38 2 41 23 35 l22 -6 -22 17 c-20 14 -23 25 -23 86 0 52 3 67 13 62 9 -6 9
-4 0 7 -9 9 -13 55 -13 156 l0 143 26 -6 c19 -5 25 -4 20 5 -4 6 -18 11 -32
11 -16 0 -24 6 -24 18 0 9 -6 28 -13 42 -11 22 -17 24 -66 21 -49 -2 -54 -1
-41 13 7 9 10 20 6 24 -4 4 -12 -1 -17 -11 -13 -23 -94 -25 -85 -2 7 18 2 19
-23 3 -15 -9 -27 -7 -64 11 -62 30 -69 51 -17 51 22 0 40 5 40 11 0 7 -16 9
-49 4 -41 -5 -49 -4 -55 11 -4 10 -1 21 6 26 10 6 9 8 -4 8 -18 0 -30 33 -43
118 -7 42 -7 42 19 32 14 -5 26 -7 26 -5 0 3 -11 10 -25 15 -18 7 -25 17 -25
36 0 21 4 25 17 20 17 -6 17 -5 0 8 -12 9 -17 27 -17 60 0 51 4 54 34 29 18
-15 18 -14 -1 8 -13 14 -23 34 -23 45 0 34 12 64 23 57 6 -3 7 -1 3 6 -10 15
32 50 60 51 19 0 20 -5 16 -62 -3 -35 -7 -65 -11 -68 -17 -14 -40 -60 -31 -65
5 -3 16 7 25 22 15 28 15 27 14 -37 -4 -128 1 -220 11 -220 6 0 10 9 10 21 0
19 1 19 22 5 12 -9 32 -16 44 -16 11 0 35 -5 53 -11 31 -11 31 -12 16 -36 -9
-13 -15 -29 -12 -36 2 -6 12 3 22 21 18 30 23 32 76 32 l56 0 8 120 c4 71 11
120 17 120 7 0 7 4 0 13 -9 11 -15 107 -13 216 1 32 2 33 35 27 20 -4 37 -2
41 4 4 6 -11 10 -40 10 l-46 0 5 193 c5 208 5 211 26 274 10 32 16 40 25 33 9
-8 11 -4 8 14 -5 27 42 87 92 118 38 23 49 23 40 1z m281 -2076 c12 -12 -17
-147 -38 -180 -21 -33 -27 -35 -83 -38 -33 -2 -162 -3 -287 -1 l-228 3 0 116
0 116 315 -5 c174 -3 318 -8 321 -11z m-181 -253 l110 -6 -2 -171 c-4 -242
-11 -314 -31 -322 -35 -14 -241 -18 -304 -5 -89 17 -115 33 -127 78 -8 30 -31
341 -31 418 0 20 4 20 138 17 75 -2 187 -6 247 -9z"/>
<path d="M847 3276 c-5 -21 -6 -41 -3 -44 12 -11 17 7 14 44 l-3 39 -8 -39z"/>
<path d="M780 3199 c7 -11 14 -19 16 -16 7 7 -7 37 -17 37 -6 0 -5 -9 1 -21z"/>
<path d="M700 3172 c6 -13 14 -21 18 -18 3 4 -2 14 -12 24 -18 16 -18 16 -6
-6z"/>
<path d="M1200 3182 c0 -10 21 -32 32 -32 16 0 8 19 -12 30 -11 6 -20 7 -20 2z"/>
<path d="M836 3114 c-9 -24 -7 -54 4 -54 6 0 10 16 10 35 0 38 -4 44 -14 19z"/>
<path d="M1234 3094 c15 -14 31 -22 35 -19 7 7 -39 45 -54 44 -5 0 3 -11 19
-25z"/>
<path d="M770 3084 c0 -24 25 -61 32 -48 3 5 -3 23 -13 39 -16 25 -19 27 -19
9z"/>
<path d="M686 3058 c16 -28 27 -38 36 -32 5 3 2 14 -8 25 -19 21 -39 26 -28 7z"/>
<path d="M1230 3028 c0 -16 5 -28 10 -28 13 0 13 20 0 40 -8 12 -10 9 -10 -12z"/>
<path d="M851 2969 c-18 -11 -31 -22 -28 -25 7 -8 67 25 67 36 0 13 0 13 -39
-11z"/>
<path d="M700 2956 c0 -9 73 -37 84 -32 6 2 0 8 -14 13 -43 18 -70 25 -70 19z"/>
<path d="M1180 2945 c0 -8 4 -15 10 -15 5 0 7 7 4 15 -4 8 -8 15 -10 15 -2 0
-4 -7 -4 -15z"/>
<path d="M800 2884 c-16 -48 -4 -56 15 -11 18 42 18 47 6 47 -5 0 -15 -16 -21
-36z"/>
<path d="M720 2846 c0 -5 65 -46 74 -46 18 0 2 18 -29 33 -37 18 -45 20 -45
13z"/>
<path d="M1238 2844 c-5 -4 -8 -19 -8 -33 0 -18 3 -22 11 -14 6 6 9 21 7 33
-1 12 -6 18 -10 14z"/>
<path d="M650 2826 c0 -3 9 -10 20 -16 11 -6 20 -8 20 -6 0 3 -9 10 -20 16
-11 6 -20 8 -20 6z"/>
<path d="M881 2741 c-22 -31 -26 -41 -13 -41 4 0 17 16 30 35 27 42 12 47 -17
6z"/>
<path d="M796 2724 c-9 -25 -7 -72 4 -79 6 -4 10 13 10 44 0 53 -4 62 -14 35z"/>
<path d="M1040 2694 c-16 -48 -4 -56 15 -11 18 42 18 47 6 47 -5 0 -15 -16
-21 -36z"/>
<path d="M1110 2702 c0 -5 21 -18 46 -30 27 -13 44 -18 42 -11 -5 14 -88 52
-88 41z"/>
<path d="M694 2679 c15 -12 30 -18 34 -14 9 8 -26 35 -46 35 -9 0 -4 -8 12
-21z"/>
<path d="M1077 2662 c-10 -11 -14 -23 -9 -26 12 -7 35 19 30 34 -2 7 -11 3
-21 -8z"/>
<path d="M713 2620 c-35 -14 -28 -31 7 -19 17 6 30 15 30 20 0 11 -8 11 -37
-1z"/>
<path d="M845 2600 c-10 -11 -14 -20 -8 -20 5 0 18 9 28 20 10 11 14 20 8 20
-5 0 -18 -9 -28 -20z"/>
<path d="M791 2548 c-1 -21 4 -38 9 -38 12 0 12 27 0 55 -7 16 -9 13 -9 -17z"/>
<path d="M700 2491 c12 -23 29 -35 37 -27 7 7 -26 46 -39 46 -5 0 -4 -9 2 -19z"/>
<path d="M808 2400 c-2 -22 0 -40 4 -40 5 0 8 18 8 40 0 22 -2 40 -4 40 -2 0
-6 -18 -8 -40z"/>
<path d="M675 2416 c35 -18 65 -20 65 -6 0 6 -6 10 -14 10 -7 0 -29 2 -47 5
l-34 5 30 -14z"/>
<path d="M685 2300 c-3 -5 1 -13 10 -16 22 -9 29 1 11 15 -10 8 -16 9 -21 1z"/>
<path d="M777 2276 c-9 -20 -12 -36 -7 -36 12 0 32 48 28 62 -2 5 -11 -7 -21
-26z"/>
<path d="M856 2291 c-10 -11 -16 -25 -14 -32 2 -7 12 0 22 16 21 32 16 43 -8
16z"/>
<path d="M617 2214 c-21 -20 -36 -38 -32 -42 3 -3 25 13 48 36 51 51 37 56
-16 6z"/>
<path d="M380 2234 c0 -12 47 -73 53 -68 7 7 -34 74 -45 74 -5 0 -8 -2 -8 -6z"/>
<path d="M765 2190 c10 -11 25 -20 34 -20 12 1 10 5 -8 20 -30 26 -49 26 -26
0z"/>
<path d="M506 2168 c-13 -33 -11 -57 4 -41 10 10 23 73 16 73 -3 0 -12 -15
-20 -32z"/>
<path d="M700 2192 c0 -10 43 -52 53 -52 16 0 5 20 -23 40 -16 12 -30 17 -30
12z"/>
<path d="M622 2095 c10 -11 68 -23 68 -15 0 4 -7 11 -16 14 -19 7 -59 8 -52 1z"/>
<path d="M793 2066 c4 -22 12 -44 18 -50 9 -8 10 -1 6 28 -4 22 -12 44 -18 50
-9 8 -10 1 -6 -28z"/>
<path d="M760 1998 c0 -15 5 -30 10 -33 13 -8 13 25 0 45 -8 12 -10 9 -10 -12z"/>
<path d="M826 1957 c-5 -15 -6 -31 -2 -34 11 -11 18 5 14 34 l-4 28 -8 -28z"/>
<path d="M720 1885 c7 -8 20 -15 29 -15 13 1 13 3 -3 15 -26 19 -42 19 -26 0z"/>
<path d="M832 1855 c-14 -31 -16 -65 -3 -65 10 0 26 78 19 86 -3 2 -10 -7 -16
-21z"/>
<path d="M700 1820 c-11 -7 -5 -10 23 -10 23 0 36 4 32 10 -8 13 -35 13 -55 0z"/>
<path d="M680 1766 c0 -5 65 -46 74 -46 16 0 3 17 -25 33 -29 16 -49 22 -49
13z"/>
<path d="M765 1750 c3 -5 14 -10 23 -10 15 0 15 2 2 10 -20 13 -33 13 -25 0z"/>
<path d="M778 1631 c-30 -52 -33 -61 -20 -61 7 0 62 92 62 104 0 19 -18 0 -42
-43z"/>
<path d="M840 1658 c0 -32 13 -78 22 -78 11 0 0 71 -13 85 -6 5 -9 3 -9 -7z"/>
<path d="M808 1574 c-5 -4 -8 -16 -8 -28 0 -14 3 -17 11 -9 6 6 9 19 7 28 -1
9 -6 13 -10 9z"/>
<path d="M773 1484 c-3 -8 -1 -20 6 -27 8 -8 11 -4 11 16 0 30 -7 35 -17 11z"/>
<path d="M820 1428 c0 -14 23 -58 32 -58 4 0 8 3 8 8 -1 9 -39 59 -40 50z"/>
<path d="M923 925 c0 -27 2 -38 4 -22 2 15 2 37 0 50 -2 12 -4 0 -4 -28z"/>
<path d="M1268 2470 c-53 -16 -97 -51 -117 -94 -19 -39 -21 -60 -21 -252 1
-115 5 -229 9 -253 18 -92 75 -133 195 -139 74 -4 86 -1 136 25 74 39 91 71
98 184 l5 89 -96 0 -96 0 -3 -87 c-3 -86 -3 -88 -28 -88 l-25 0 0 250 0 250
25 0 c25 0 25 -1 30 -100 l5 -100 94 -3 93 -3 -4 103 c-4 129 -20 161 -97 201
-43 21 -68 27 -115 26 -34 0 -73 -4 -88 -9z"/>
<path d="M2226 2465 c-51 -18 -104 -70 -116 -115 -12 -41 -12 -404 -1 -473 16
-95 78 -140 201 -145 66 -3 81 0 130 25 75 38 93 72 98 185 l4 88 -91 0 -91 0
-1 -47 c0 -27 -3 -66 -7 -88 -6 -34 -11 -40 -32 -40 l-25 0 0 244 c0 220 2
245 17 255 30 18 40 -7 46 -108 l5 -96 92 0 92 0 -4 73 c-8 140 -12 156 -51
195 -21 21 -56 43 -78 50 -54 16 -139 15 -188 -3z"/>
<path d="M3627 2466 c-79 -29 -107 -79 -107 -191 1 -98 22 -132 134 -210 53
-36 101 -75 107 -86 15 -29 7 -110 -12 -122 -35 -22 -49 -2 -49 73 l0 70 -90
0 -91 0 7 -67 c8 -88 19 -125 47 -151 58 -55 196 -69 282 -28 76 35 90 62 90
176 -1 131 -17 161 -133 239 -107 71 -115 81 -115 132 0 82 56 79 61 -5 l3
-46 85 0 84 0 0 55 c0 79 -20 119 -72 146 -55 28 -175 36 -231 15z"/>
<path d="M1694 2455 c-4 -11 -94 -687 -94 -704 0 -7 34 -11 94 -11 l93 0 7 38
c3 20 6 49 6 65 0 24 4 27 34 27 31 0 34 -3 40 -37 3 -21 6 -50 6 -65 l0 -28
95 0 c84 0 95 2 94 18 0 9 -24 172 -52 361 l-52 344 -134 1 c-81 1 -135 -3
-137 -9z m161 -352 l7 -103 -31 0 c-36 0 -35 -10 -16 145 8 65 16 124 16 130
3 25 18 -80 24 -172z"/>
<path d="M2580 2395 l0 -75 55 0 55 0 0 -290 0 -290 95 0 95 0 0 290 0 290 55
0 55 0 0 75 0 75 -205 0 -205 0 0 -75z"/>
<path d="M3032 2163 c4 -359 3 -358 97 -405 125 -64 291 -16 321 91 5 20 10
167 10 329 l0 293 -92 -3 -93 -3 -5 -305 c-5 -297 -6 -305 -25 -305 -20 0 -20
8 -23 308 l-2 307 -96 0 -95 0 3 -307z"/>
<path d="M2900 1595 l0 -45 55 0 55 0 0 45 0 45 -55 0 -55 0 0 -45z"/>
<path d="M1330 1396 l0 -226 55 0 55 0 0 74 0 73 79 5 c92 5 138 27 163 78 36
71 13 157 -52 195 -29 17 -57 21 -167 23 l-133 4 0 -226z m230 124 c11 -11 20
-33 20 -50 0 -46 -31 -70 -90 -70 l-50 0 0 70 0 70 50 0 c37 0 55 -5 70 -20z"/>
<path d="M1825 1515 c-5 -2 -22 -6 -37 -9 -25 -6 -28 -11 -28 -45 l0 -39 38
14 c74 26 162 9 162 -32 0 -10 -14 -14 -57 -14 -121 0 -173 -35 -173 -116 0
-64 39 -105 106 -111 41 -4 55 -1 87 21 35 24 37 24 37 6 0 -18 7 -20 55 -20
l55 0 0 120 c0 150 -11 182 -72 210 -38 17 -140 26 -173 15z m135 -210 c0 -52
-75 -96 -108 -63 -18 18 -15 65 6 77 9 6 36 11 60 11 38 0 42 -2 42 -25z"/>
<path d="M2316 1495 c-34 -23 -36 -23 -36 -5 0 18 -7 20 -55 20 l-55 0 0 -170
0 -170 55 0 55 0 0 95 c0 52 5 105 11 119 14 30 58 50 99 44 30 -5 30 -4 30
44 0 48 0 48 -34 48 -19 0 -49 -11 -70 -25z"/>
<path d="M2555 1515 c-5 -2 -22 -6 -37 -9 -25 -6 -28 -11 -28 -45 l0 -39 38
14 c74 26 162 9 162 -32 0 -10 -14 -14 -57 -14 -121 0 -173 -35 -173 -116 0
-64 39 -105 106 -111 41 -4 55 -1 87 21 35 24 37 24 37 6 0 -18 7 -20 55 -20
l55 0 0 120 c0 150 -11 182 -72 210 -38 17 -140 26 -173 15z m135 -210 c0 -52
-75 -96 -108 -63 -18 18 -15 65 6 77 9 6 36 11 60 11 38 0 42 -2 42 -25z"/>
<path d="M3166 1510 c-41 -13 -65 -38 -72 -77 -8 -43 11 -90 45 -108 20 -10
125 -35 147 -35 1 0 4 -7 8 -15 15 -41 -60 -57 -147 -31 l-47 14 0 -39 c0 -34
4 -40 28 -46 47 -14 187 -9 216 7 56 30 73 109 33 156 -18 21 -41 30 -102 43
-62 13 -81 20 -83 35 -2 10 2 22 10 27 20 13 88 10 133 -6 22 -8 41 -15 43
-15 1 0 2 18 2 39 0 28 -5 41 -17 46 -29 11 -166 15 -197 5z"/>
<path d="M3551 1498 c-70 -36 -86 -65 -86 -158 0 -93 16 -122 85 -157 95 -49
215 -18 258 67 43 85 19 196 -52 240 -57 34 -148 38 -205 8z m129 -68 c28 -15
43 -81 30 -130 -13 -49 -46 -69 -88 -54 -37 13 -54 49 -49 108 6 72 53 105
107 76z"/>
<path d="M2900 1340 l0 -170 55 0 55 0 0 170 0 170 -55 0 -55 0 0 -170z"/>
</g>
</svg>
